<svg width="206" height="180" xmlns="http://www.w3.org/2000/svg" fill="none" viewBox="0 0 206 201"><defs/><path fill="#D22C1E" d="M202.421 125.068a11.594 11.594 0 00-12.033-3.343l-1.337.335V64.234h6.685c.669 0 1.672-.668 1.672-1.67V37.828c0-.669-.669-1.672-1.672-1.672H165.32l2.339-1.67c8.357-6.352 11.365-16.713 7.02-24.401-2.006-4.011-5.683-7.02-10.362-8.356-5.682-1.672-12.033-1.003-17.715 2.005-8.022 4.011-15.71 19.052-19.721 27.409l-.334.334H111.84l-.335-.669c-4.011-8.356-12.033-23.397-19.72-27.408C86.101.393 79.416-.276 73.734 1.395c-4.68 1.337-8.356 4.346-10.362 8.357-4.01 8.022-1.002 18.383 7.02 24.734l2.34 1.671H42.314c-.668 0-1.67.669-1.67 1.672v24.734c0 .669.668 1.671 1.67 1.671h6.686v61.168H35.965v-5.014c0-.668-.669-1.671-1.672-1.671H1.872c-.668 0-1.671.669-1.671 1.671 0 1.003.669 1.337 1.671 1.337h31.085v64.511H1.871c-.668 0-1.671.668-1.671 1.671 0 1.003.669 1.671 1.671 1.671h32.757c.668 0 1.671-.668 1.671-1.671v-5.348h10.028c7.019 0 21.726 4.679 35.764 9.359 13.37 4.345 27.409 9.025 33.76 9.025 6.35 0 12.701-2.34 17.715-6.017l67.518-53.48c2.34-2.005 4.011-4.679 4.346-7.688 0-3.342-1.003-6.35-3.009-8.69zm-8.022-85.902v21.726h-61.502V39.166h61.502zm-52.811 113.31c-1.003-4.345-4.011-8.022-8.022-9.359l-.669-.334V64.234h53.146v59.831l-.668.334-.335.669c-2.339 1.671-11.364 8.356-41.447 31.085l-1.671 1.337v-2.34c0-1.002-.334-1.671-.334-2.674zm-11.03-122.67c3.676-7.353 10.696-20.389 17.381-23.731 5.013-2.674 10.696-3.343 15.709-1.671 4.011 1.337 6.685 3.676 8.691 7.019 1.671 3.342 2.005 7.02.668 11.03-1.671 5.014-5.348 9.36-10.361 12.033-3.009 1.671-7.688 2.006-12.702 2.006-6.016 0-12.701-.669-16.044-1.337h-1.003v-2.006-.668c-.334-.669-.668-1.003-1.337-1.003h-1.671l.669-1.671zm-21.727 4.68h21.392V142.45h-21.726V62.563c0-16.712.334-27.074.334-27.074-.334-1.003-.334-1.003 0-1.003zM65.379 22.453c-1.337-4.01-1.003-7.688.668-11.03 1.672-3.343 4.68-5.682 8.356-7.02 5.014-1.67 10.697-1.002 15.71 1.672 6.685 3.342 13.705 16.378 17.381 23.732l.669 1.337h-1.671c-1.003 0-1.672.668-1.672 1.67v2.006h-1.002c-4.011.669-10.028 1.337-15.71 1.337h-.335c-5.682 0-9.693-.668-12.367-2.005-4.68-2.34-8.69-7.02-10.027-11.699zM43.987 61.226V39.5h61.168v21.726H43.987zm61.168 3.008v78.215h-1.337c-9.694 0-15.042-4.345-20.055-8.356-5.014-4.346-10.362-8.691-21.393-8.691H52.01V64.234h53.146zm96.932 68.856c-.334 2.34-1.337 4.345-3.008 5.682l-67.519 53.48c-4.679 3.677-10.027 5.348-15.709 5.348-2.674 0-5.014-.334-7.354-1.003-18.05-5.348-30.082-9.024-38.105-11.698-14.706-4.68-17.715-5.683-24.065-5.683H36.299V128.41h26.406c10.362 0 15.375 4.346 20.055 8.357 5.013 4.345 10.027 8.69 21.392 8.69h25.403c5.348 0 9.693 4.345 9.693 9.693s-4.345 9.694-9.693 9.694H91.116c-.334 0-7.02 1.671-10.696 10.361-.334.669 0 1.672.668 2.006.669.334 1.672 0 2.006-.669 2.674-6.35 7.02-8.356 8.356-8.69h38.439c3.008 0 3.343 0 28.411-19.052 7.688-5.683 17.716-13.37 30.751-23.064 3.343-2.674 8.357-2.005 11.031 1.337 1.671 1.672 2.339 3.677 2.005 6.017z"/><circle cx="54.8" cy="66.8" r="1.3" fill="#D22C1E" fill-opacity=".8"/><circle cx="65.2" cy="66.8" r="1.3" fill="#D22C1E" fill-opacity=".8"/><circle cx="86" cy="66.8" r="1.3" fill="#D22C1E" fill-opacity=".8"/><circle cx="96.4" cy="66.8" r="1.3" fill="#D22C1E" fill-opacity=".8"/><circle cx="75.6" cy="66.8" r="1.3" fill="#D22C1E" fill-opacity=".8"/><circle cx="54.8" cy="98" r="1.3" fill="#D22C1E" fill-opacity=".8"/><circle cx="65.2" cy="98" r="1.3" fill="#D22C1E" fill-opacity=".8"/><circle cx="86" cy="98" r="1.3" fill="#D22C1E" fill-opacity=".8"/><circle cx="96.4" cy="98" r="1.3" fill="#D22C1E" fill-opacity=".8"/><circle cx="75.6" cy="98" r="1.3" fill="#D22C1E" fill-opacity=".8"/><circle cx="54.8" cy="77.2" r="1.3" fill="#D22C1E" fill-opacity=".8"/><circle cx="65.2" cy="77.2" r="1.3" fill="#D22C1E" fill-opacity=".8"/><circle cx="86" cy="77.2" r="1.3" fill="#D22C1E" fill-opacity=".8"/><circle cx="96.4" cy="77.2" r="1.3" fill="#D22C1E" fill-opacity=".8"/><circle cx="75.6" cy="77.2" r="1.3" fill="#D22C1E" fill-opacity=".8"/><circle cx="54.8" cy="108.4" r="1.3" fill="#D22C1E" fill-opacity=".8"/><circle cx="65.2" cy="108.4" r="1.3" fill="#D22C1E" fill-opacity=".8"/><circle cx="86" cy="108.4" r="1.3" fill="#D22C1E" fill-opacity=".8"/><circle cx="96.4" cy="108.4" r="1.3" fill="#D22C1E" fill-opacity=".8"/><circle cx="75.6" cy="108.4" r="1.3" fill="#D22C1E" fill-opacity=".8"/><circle cx="54.8" cy="87.6" r="1.3" fill="#D22C1E" fill-opacity=".8"/><circle cx="65.2" cy="87.6" r="1.3" fill="#D22C1E" fill-opacity=".8"/><circle cx="86" cy="87.6" r="1.3" fill="#D22C1E" fill-opacity=".8"/><circle cx="96.4" cy="87.6" r="1.3" fill="#D22C1E" fill-opacity=".8"/><circle cx="75.6" cy="87.6" r="1.3" fill="#D22C1E" fill-opacity=".8"/><circle cx="54.8" cy="118.8" r="1.3" fill="#D22C1E" fill-opacity=".8"/><circle cx="65.2" cy="118.8" r="1.3" fill="#D22C1E" fill-opacity=".8"/><circle cx="86" cy="118.8" r="1.3" fill="#D22C1E" fill-opacity=".8"/><circle cx="96.4" cy="118.8" r="1.3" fill="#D22C1E" fill-opacity=".8"/><circle cx="75.6" cy="118.8" r="1.3" fill="#D22C1E" fill-opacity=".8"/><circle cx="80.8" cy="72" r="1.3" fill="#D22C1E" fill-opacity=".8"/><circle cx="60" cy="72" r="1.3" fill="#D22C1E" fill-opacity=".8"/><circle cx="70.4" cy="72" r="1.3" fill="#D22C1E" fill-opacity=".8"/><circle cx="91.2" cy="72" r="1.3" fill="#D22C1E" fill-opacity=".8"/><circle cx="101.6" cy="72" r="1.3" fill="#D22C1E" fill-opacity=".8"/><circle cx="80.8" cy="103.2" r="1.3" fill="#D22C1E" fill-opacity=".8"/><circle cx="60" cy="103.2" r="1.3" fill="#D22C1E" fill-opacity=".8"/><circle cx="70.4" cy="103.2" r="1.3" fill="#D22C1E" fill-opacity=".8"/><circle cx="91.2" cy="103.2" r="1.3" fill="#D22C1E" fill-opacity=".8"/><circle cx="101.6" cy="103.2" r="1.3" fill="#D22C1E" fill-opacity=".8"/><circle cx="80.8" cy="82.4" r="1.3" fill="#D22C1E" fill-opacity=".8"/><circle cx="60" cy="82.4" r="1.3" fill="#D22C1E" fill-opacity=".8"/><circle cx="70.4" cy="82.4" r="1.3" fill="#D22C1E" fill-opacity=".8"/><circle cx="91.2" cy="82.4" r="1.3" fill="#D22C1E" fill-opacity=".8"/><circle cx="101.6" cy="82.4" r="1.3" fill="#D22C1E" fill-opacity=".8"/><circle cx="80.8" cy="113.6" r="1.3" fill="#D22C1E" fill-opacity=".8"/><circle cx="60" cy="113.6" r="1.3" fill="#D22C1E" fill-opacity=".8"/><circle cx="70.4" cy="113.6" r="1.3" fill="#D22C1E" fill-opacity=".8"/><circle cx="91.2" cy="113.6" r="1.3" fill="#D22C1E" fill-opacity=".8"/><circle cx="101.6" cy="113.6" r="1.3" fill="#D22C1E" fill-opacity=".8"/><circle cx="80.8" cy="92.8" r="1.3" fill="#D22C1E" fill-opacity=".8"/><circle cx="60" cy="92.8" r="1.3" fill="#D22C1E" fill-opacity=".8"/><circle cx="70.4" cy="92.8" r="1.3" fill="#D22C1E" fill-opacity=".8"/><circle cx="91.2" cy="92.8" r="1.3" fill="#D22C1E" fill-opacity=".8"/><circle cx="101.6" cy="92.8" r="1.3" fill="#D22C1E" fill-opacity=".8"/><circle cx="80.8" cy="124" r="1.3" fill="#D22C1E" fill-opacity=".8"/><circle cx="60" cy="124" r="1.3" fill="#D22C1E" fill-opacity=".8"/><circle cx="70.4" cy="124" r="1.3" fill="#D22C1E" fill-opacity=".8"/><circle cx="91.2" cy="124" r="1.3" fill="#D22C1E" fill-opacity=".8"/><circle cx="101.6" cy="124" r="1.3" fill="#D22C1E" fill-opacity=".8"/><circle cx="86" cy="129.2" r="1.3" fill="#D22C1E" fill-opacity=".8"/><circle cx="96.4" cy="129.2" r="1.3" fill="#D22C1E" fill-opacity=".8"/><circle cx="91.2" cy="134.4" r="1.3" fill="#D22C1E" fill-opacity=".8"/><circle cx="101.6" cy="134.4" r="1.3" fill="#D22C1E" fill-opacity=".8"/><circle cx="96.4" cy="139.6" r="1.3" fill="#D22C1E" fill-opacity=".8"/><circle r="1.3" fill="#D22C1E" fill-opacity=".8" transform="matrix(-1 0 0 1 183.5 66.8)"/><circle r="1.3" fill="#D22C1E" fill-opacity=".8" transform="matrix(-1 0 0 1 173.1 66.8)"/><circle r="1.3" fill="#D22C1E" fill-opacity=".8" transform="matrix(-1 0 0 1 152.3 66.8)"/><circle r="1.3" fill="#D22C1E" fill-opacity=".8" transform="matrix(-1 0 0 1 141.9 66.8)"/><circle r="1.3" fill="#D22C1E" fill-opacity=".8" transform="matrix(-1 0 0 1 162.7 66.8)"/><circle r="1.3" fill="#D22C1E" fill-opacity=".8" transform="matrix(-1 0 0 1 183.5 98)"/><circle r="1.3" fill="#D22C1E" fill-opacity=".8" transform="matrix(-1 0 0 1 173.1 98)"/><circle r="1.3" fill="#D22C1E" fill-opacity=".8" transform="matrix(-1 0 0 1 152.3 98)"/><circle r="1.3" fill="#D22C1E" fill-opacity=".8" transform="matrix(-1 0 0 1 141.9 98)"/><circle r="1.3" fill="#D22C1E" fill-opacity=".8" transform="matrix(-1 0 0 1 162.7 98)"/><circle r="1.3" fill="#D22C1E" fill-opacity=".8" transform="matrix(-1 0 0 1 183.5 77.2)"/><circle r="1.3" fill="#D22C1E" fill-opacity=".8" transform="matrix(-1 0 0 1 173.1 77.2)"/><circle r="1.3" fill="#D22C1E" fill-opacity=".8" transform="matrix(-1 0 0 1 152.3 77.2)"/><circle r="1.3" fill="#D22C1E" fill-opacity=".8" transform="matrix(-1 0 0 1 141.9 77.2)"/><circle r="1.3" fill="#D22C1E" fill-opacity=".8" transform="matrix(-1 0 0 1 162.7 77.2)"/><circle r="1.3" fill="#D22C1E" fill-opacity=".8" transform="matrix(-1 0 0 1 183.5 108.4)"/><circle r="1.3" fill="#D22C1E" fill-opacity=".8" transform="matrix(-1 0 0 1 173.1 108.4)"/><circle r="1.3" fill="#D22C1E" fill-opacity=".8" transform="matrix(-1 0 0 1 173.1 129.2)"/><circle r="1.3" fill="#D22C1E" fill-opacity=".8" transform="matrix(-1 0 0 1 152.3 108.4)"/><circle r="1.3" fill="#D22C1E" fill-opacity=".8" transform="matrix(-1 0 0 1 152.3 129.2)"/><circle r="1.3" fill="#D22C1E" fill-opacity=".8" transform="matrix(-1 0 0 1 141.9 108.4)"/><circle r="1.3" fill="#D22C1E" fill-opacity=".8" transform="matrix(-1 0 0 1 141.9 129.2)"/><circle r="1.3" fill="#D22C1E" fill-opacity=".8" transform="matrix(-1 0 0 1 162.7 108.4)"/><circle r="1.3" fill="#D22C1E" fill-opacity=".8" transform="matrix(-1 0 0 1 162.7 129.2)"/><circle r="1.3" fill="#D22C1E" fill-opacity=".8" transform="matrix(-1 0 0 1 183.5 87.6)"/><circle r="1.3" fill="#D22C1E" fill-opacity=".8" transform="matrix(-1 0 0 1 173.1 87.6)"/><circle r="1.3" fill="#D22C1E" fill-opacity=".8" transform="matrix(-1 0 0 1 152.3 87.6)"/><circle r="1.3" fill="#D22C1E" fill-opacity=".8" transform="matrix(-1 0 0 1 141.9 87.6)"/><circle r="1.3" fill="#D22C1E" fill-opacity=".8" transform="matrix(-1 0 0 1 162.7 87.6)"/><circle r="1.3" fill="#D22C1E" fill-opacity=".8" transform="matrix(-1 0 0 1 183.5 118.8)"/><circle r="1.3" fill="#D22C1E" fill-opacity=".8" transform="matrix(-1 0 0 1 173.1 118.8)"/><circle r="1.3" fill="#D22C1E" fill-opacity=".8" transform="matrix(-1 0 0 1 152.3 118.8)"/><circle r="1.3" fill="#D22C1E" fill-opacity=".8" transform="matrix(-1 0 0 1 152.3 139.6)"/><circle r="1.3" fill="#D22C1E" fill-opacity=".8" transform="matrix(-1 0 0 1 141.9 118.8)"/><circle r="1.3" fill="#D22C1E" fill-opacity=".8" transform="matrix(-1 0 0 1 141.9 139.6)"/><circle r="1.3" fill="#D22C1E" fill-opacity=".8" transform="matrix(-1 0 0 1 162.7 118.8)"/><circle r="1.3" fill="#D22C1E" fill-opacity=".8" transform="matrix(-1 0 0 1 162.7 139.6)"/><circle r="1.3" fill="#D22C1E" fill-opacity=".8" transform="matrix(-1 0 0 1 157.5 72)"/><circle r="1.3" fill="#D22C1E" fill-opacity=".8" transform="matrix(-1 0 0 1 178.3 72)"/><circle r="1.3" fill="#D22C1E" fill-opacity=".8" transform="matrix(-1 0 0 1 167.9 72)"/><circle r="1.3" fill="#D22C1E" fill-opacity=".8" transform="matrix(-1 0 0 1 147.1 72)"/><circle r="1.3" fill="#D22C1E" fill-opacity=".8" transform="matrix(-1 0 0 1 136.7 72)"/><circle r="1.3" fill="#D22C1E" fill-opacity=".8" transform="matrix(-1 0 0 1 157.5 103.2)"/><circle r="1.3" fill="#D22C1E" fill-opacity=".8" transform="matrix(-1 0 0 1 178.3 103.2)"/><circle r="1.3" fill="#D22C1E" fill-opacity=".8" transform="matrix(-1 0 0 1 167.9 103.2)"/><circle r="1.3" fill="#D22C1E" fill-opacity=".8" transform="matrix(-1 0 0 1 147.1 103.2)"/><circle r="1.3" fill="#D22C1E" fill-opacity=".8" transform="matrix(-1 0 0 1 136.7 103.2)"/><circle r="1.3" fill="#D22C1E" fill-opacity=".8" transform="matrix(-1 0 0 1 157.5 82.4)"/><circle r="1.3" fill="#D22C1E" fill-opacity=".8" transform="matrix(-1 0 0 1 178.3 82.4)"/><circle r="1.3" fill="#D22C1E" fill-opacity=".8" transform="matrix(-1 0 0 1 167.9 82.4)"/><circle r="1.3" fill="#D22C1E" fill-opacity=".8" transform="matrix(-1 0 0 1 147.1 82.4)"/><circle r="1.3" fill="#D22C1E" fill-opacity=".8" transform="matrix(-1 0 0 1 136.7 82.4)"/><circle r="1.3" fill="#D22C1E" fill-opacity=".8" transform="matrix(-1 0 0 1 157.5 113.6)"/><circle r="1.3" fill="#D22C1E" fill-opacity=".8" transform="matrix(-1 0 0 1 157.5 134.4)"/><circle r="1.3" fill="#D22C1E" fill-opacity=".8" transform="matrix(-1 0 0 1 178.3 113.6)"/><circle r="1.3" fill="#D22C1E" fill-opacity=".8" transform="matrix(-1 0 0 1 167.9 113.6)"/><circle r="1.3" fill="#D22C1E" fill-opacity=".8" transform="matrix(-1 0 0 1 167.9 134.4)"/><circle r="1.3" fill="#D22C1E" fill-opacity=".8" transform="matrix(-1 0 0 1 147.1 113.6)"/><circle r="1.3" fill="#D22C1E" fill-opacity=".8" transform="matrix(-1 0 0 1 147.1 134.4)"/><circle r="1.3" fill="#D22C1E" fill-opacity=".8" transform="matrix(-1 0 0 1 147.1 144.8)"/><circle r="1.3" fill="#D22C1E" fill-opacity=".8" transform="matrix(-1 0 0 1 136.7 113.6)"/><circle r="1.3" fill="#D22C1E" fill-opacity=".8" transform="matrix(-1 0 0 1 136.7 134.4)"/><circle r="1.3" fill="#D22C1E" fill-opacity=".8" transform="matrix(-1 0 0 1 157.5 92.8)"/><circle r="1.3" fill="#D22C1E" fill-opacity=".8" transform="matrix(-1 0 0 1 178.3 92.8)"/><circle r="1.3" fill="#D22C1E" fill-opacity=".8" transform="matrix(-1 0 0 1 167.9 92.8)"/><circle r="1.3" fill="#D22C1E" fill-opacity=".8" transform="matrix(-1 0 0 1 147.1 92.8)"/><circle r="1.3" fill="#D22C1E" fill-opacity=".8" transform="matrix(-1 0 0 1 136.7 92.8)"/><circle r="1.3" fill="#D22C1E" fill-opacity=".8" transform="matrix(-1 0 0 1 157.5 124)"/><circle r="1.3" fill="#D22C1E" fill-opacity=".8" transform="matrix(-1 0 0 1 178.3 124)"/><circle r="1.3" fill="#D22C1E" fill-opacity=".8" transform="matrix(-1 0 0 1 167.9 124)"/><circle r="1.3" fill="#D22C1E" fill-opacity=".8" transform="matrix(-1 0 0 1 147.1 124)"/><circle r="1.3" fill="#D22C1E" fill-opacity=".8" transform="matrix(-1 0 0 1 136.7 124)"/></svg>